<svg width="16" height="16" viewBox="0 0 16 16" fill="none" xmlns="http://www.w3.org/2000/svg">
<path fill-rule="evenodd" clip-rule="evenodd" d="M12 14.4C12.44 14.4 12.8 14.7584 12.8 15.2C12.8 15.6416 12.44 16 12 16C11.56 16 11.2 15.6416 11.2 15.2C11.2 14.7584 11.56 14.4 12 14.4ZM7.2 14.4C7.64 14.4 8 14.7584 8 15.2C8 15.6416 7.64 16 7.2 16C6.76 16 6.4 15.6416 6.4 15.2C6.4 14.7584 6.76 14.4 7.2 14.4ZM15.912 2.7664L12.712 9.1576C12.584 9.4288 12.304 9.6 12 9.6H5.6C5.16 9.6 4.8 9.9584 4.8 10.4C4.8 10.8416 5.16 11.2 5.6 11.2H13.6C14.04 11.2 14.4 11.5584 14.4 12C14.4 12.4416 14.04 12.8 13.6 12.8C13.6 12.8 8.328 12.8 5.6 12.8C4.272 12.8 3.2 11.7256 3.2 10.4C3.2 9.4344 3.768 8.6024 4.592 8.2216L2.608 1.6H0.8C0.36 1.6 0 1.2416 0 0.8C0 0.3584 0.36 0 0.8 0H3.2C3.552 0 3.864 0.232 3.968 0.5704L4.272 1.6H15.192C15.256 1.5992 15.32 1.6056 15.384 1.6208V1.6224C15.464 1.64 15.528 1.668 15.592 1.7048C15.712 1.7728 15.816 1.868 15.88 1.9792C15.952 2.0904 15.992 2.2192 16 2.3576C16 2.4312 16 2.5064 15.976 2.5808V2.5872C15.96 2.6504 15.944 2.7104 15.912 2.7664ZM13.904 3.2H4.752L6.192 8H11.504L13.904 3.2Z" fill="#451355"/>
</svg>
