<svg width="28" height="28" viewBox="0 0 28 28" fill="none" xmlns="http://www.w3.org/2000/svg">
<path d="M28 8.28406V26.3657H19.6563C17.3636 26.3657 16.1577 27.9135 16.035 27.9999H11.965C11.8404 27.9135 10.652 26.3657 8.34372 26.3657H0V6.6499H1.64052V24.7316H8.35072C10.9147 24.7316 12.3418 26.1733 12.6974 26.3657H15.3026C15.6582 26.1733 17.0856 24.7316 19.6493 24.7316H26.3595V8.28406H28Z" fill="white"/>
<path d="M11.5499 23.4499C10.536 23.0219 9.43893 22.7995 8.30907 22.7995H3.1499V3.1499H4.81947V19.5422H7.32397C9.59936 19.5422 11.4604 21.282 11.5499 23.4499Z" fill="white"/>
<path d="M19.5102 4.8999C17.7997 4.8999 16.1524 5.34977 14.7002 6.21342C14.7377 6.58276 14.757 6.96043 14.757 7.34088V24.4999C14.865 24.4194 14.9888 24.3333 15.1296 24.2389C17.6228 22.5643 19.3407 22.9059 24.5002 22.9059V4.8999H19.5102Z" fill="white"/>
<path d="M13.2999 23.8C13.2999 20.6462 10.6866 18.0807 7.47412 18.0807H6.6499V0C10.7713 0 13.2999 3.29882 13.2999 7.35332V23.8Z" fill="white"/>
</svg>
