<svg width="15" height="15" viewBox="0 0 15 15" fill="none" xmlns="http://www.w3.org/2000/svg">
<path fill-rule="evenodd" clip-rule="evenodd" d="M0 7.5C0 3.35781 3.35938 0 7.5 0C11.6406 0 15 3.35781 15 7.5C15 11.6422 11.6406 15 7.5 15C5.97656 15 4.55469 14.5445 3.375 13.7625L0.398438 14.6102L1.42969 11.8984C0.53125 10.6633 0 9.14219 0 7.5ZM10.6875 11.4055L11.4844 10.607C11.7812 10.2711 11.7812 9.76719 11.4844 9.47266L10.3125 8.29531C9.89062 7.875 9.17188 8.04375 9.00781 8.58906C8.88281 8.96797 8.46094 9.17813 8.08594 9.09375C7.24219 8.88359 6.10938 7.79063 5.89844 6.90938C5.77344 6.53047 6.02344 6.11094 6.39844 5.98281C6.94531 5.81641 7.11719 5.10156 6.69531 4.68203L5.51562 3.50469C5.17969 3.21016 4.67969 3.21016 4.38281 3.50469L3.58594 4.30313C2.78906 5.14297 3.67188 7.37031 5.64844 9.34688C7.61719 11.3211 9.84375 12.2453 10.6875 11.4055Z" fill="white"/>
</svg>
